<svg width="22" height="22" viewBox="0 0 22 22" fill="none" xmlns="http://www.w3.org/2000/svg">
<path d="M19.8301 6.09296C19.5421 5.42617 19.1269 4.82193 18.6076 4.31406C18.088 3.80468 17.4753 3.39988 16.8029 3.12168C16.1057 2.83206 15.3579 2.68381 14.6029 2.68555C13.5438 2.68555 12.5104 2.97559 11.6123 3.52344C11.3975 3.65449 11.1934 3.79844 11 3.95527C10.8066 3.79844 10.6025 3.65449 10.3877 3.52344C9.48965 2.97559 8.45625 2.68555 7.39707 2.68555C6.63438 2.68555 5.89531 2.83164 5.19707 3.12168C4.52246 3.40098 3.91445 3.80273 3.39238 4.31406C2.87245 4.82135 2.45712 5.42574 2.16992 6.09296C1.87129 6.78691 1.71875 7.52382 1.71875 8.28222C1.71875 8.99765 1.86484 9.74315 2.15488 10.5015C2.39766 11.1353 2.7457 11.7928 3.19043 12.4566C3.89512 13.5072 4.86406 14.6029 6.06719 15.7137C8.06094 17.5549 10.0354 18.8267 10.1191 18.8783L10.6283 19.2049C10.8539 19.3488 11.1439 19.3488 11.3695 19.2049L11.8787 18.8783C11.9625 18.8246 13.9348 17.5549 15.9307 15.7137C17.1338 14.6029 18.1027 13.5072 18.8074 12.4566C19.2521 11.7928 19.6023 11.1353 19.843 10.5015C20.133 9.74315 20.2791 8.99765 20.2791 8.28222C20.2813 7.52382 20.1287 6.78691 19.8301 6.09296ZM11 17.5054C11 17.5054 3.35156 12.6049 3.35156 8.28222C3.35156 6.09296 5.1627 4.31836 7.39707 4.31836C8.96758 4.31836 10.3297 5.19492 11 6.47538C11.6703 5.19492 13.0324 4.31836 14.6029 4.31836C16.8373 4.31836 18.6484 6.09296 18.6484 8.28222C18.6484 12.6049 11 17.5054 11 17.5054Z" fill="black"/>
</svg>
