<svg width="18" height="12" viewBox="0 0 18 12" fill="none" xmlns="http://www.w3.org/2000/svg">
<path fill-rule="evenodd" clip-rule="evenodd" d="M17.6667 1.66667C17.6667 1.11439 17.219 0.666672 16.6667 0.666672H15.6667C15.1144 0.666672 14.6667 1.11439 14.6667 1.66667V10.3333C14.6667 10.8856 15.1144 11.3333 15.6667 11.3333H16.6667C17.219 11.3333 17.6667 10.8856 17.6667 10.3333V1.66667ZM11 3.00001H12C12.5523 3.00001 13 3.44772 13 4.00001V10.3333C13 10.8856 12.5523 11.3333 12 11.3333H11C10.4477 11.3333 10 10.8856 10 10.3333V4.00001C10 3.44772 10.4477 3.00001 11 3.00001ZM7.33335 5.33334H6.33335C5.78107 5.33334 5.33335 5.78105 5.33335 6.33334V10.3333C5.33335 10.8856 5.78107 11.3333 6.33335 11.3333H7.33335C7.88564 11.3333 8.33335 10.8856 8.33335 10.3333V6.33334C8.33335 5.78105 7.88564 5.33334 7.33335 5.33334ZM3.66669 8.33334C3.66669 7.78105 3.21897 7.33334 2.66669 7.33334H1.66669C1.1144 7.33334 0.666687 7.78105 0.666687 8.33334V10.3333C0.666687 10.8856 1.1144 11.3333 1.66669 11.3333H2.66669C3.21897 11.3333 3.66669 10.8856 3.66669 10.3333V8.33334Z" fill="black"/>
</svg>
