<svg width="23" height="23" viewBox="0 0 23 23" fill="none" xmlns="http://www.w3.org/2000/svg">
<path d="M11.9874 7.54688C12.7692 7.54688 13.5335 7.77872 14.1836 8.2131C14.8337 8.64747 15.3404 9.26486 15.6396 9.9872C15.9388 10.7095 16.0171 11.5044 15.8645 12.2712C15.712 13.038 15.3355 13.7424 14.7826 14.2953C14.2298 14.8481 13.5254 15.2246 12.7586 15.3772C11.9917 15.5297 11.1969 15.4514 10.4746 15.1522C9.75223 14.853 9.13484 14.3463 8.70046 13.6962C8.26609 13.0461 8.03424 12.2819 8.03424 11.5C8.03543 10.4519 8.4523 9.44713 9.1934 8.70603C9.93449 7.96493 10.9393 7.54806 11.9874 7.54688ZM11.9874 14.0156C12.4849 14.0156 12.9713 13.8681 13.385 13.5917C13.7987 13.3152 14.1211 12.9224 14.3115 12.4627C14.5019 12.003 14.5517 11.4972 14.4547 11.0092C14.3576 10.5212 14.118 10.073 13.7662 9.72118C13.4144 9.36937 12.9661 9.12978 12.4781 9.03271C11.9902 8.93565 11.4843 8.98546 11.0247 9.17586C10.565 9.36627 10.1721 9.6887 9.8957 10.1024C9.61928 10.5161 9.47174 11.0025 9.47174 11.5C9.47249 12.167 9.73777 12.8064 10.2094 13.278C10.681 13.7496 11.3204 14.0149 11.9874 14.0156Z" fill="#777777"/>
<path d="M2.12481 14.4792L3.55197 13.3043C3.29897 12.1147 3.29897 10.8853 3.55197 9.69567L2.12481 8.52083C1.9602 8.38596 1.84899 8.19691 1.81108 7.98752C1.77316 7.77813 1.81103 7.56208 1.9179 7.37806L3.38289 4.84074C3.48879 4.65612 3.65699 4.51526 3.85732 4.44339C4.05766 4.37153 4.27704 4.37337 4.47615 4.44857L6.20838 5.09756C7.11077 4.28226 8.17534 3.66697 9.33225 3.29206L9.63619 1.46953C9.6706 1.25949 9.77869 1.06857 9.94109 0.930995C10.1035 0.793417 10.3096 0.718174 10.5224 0.718753H13.4523C13.6651 0.718182 13.8712 0.793421 14.0336 0.930989C14.196 1.06856 14.3041 1.25946 14.3385 1.46949L14.6423 3.29206C15.7992 3.66696 16.8638 4.28225 17.7662 5.09756L19.4986 4.44848C19.6977 4.37333 19.917 4.37152 20.1173 4.44339C20.3176 4.51526 20.4858 4.65611 20.5917 4.84069L22.0566 7.3782C22.1635 7.56222 22.2013 7.77828 22.1634 7.98766C22.1254 8.19705 22.0142 8.38609 21.8495 8.52092L20.4225 9.69567C20.6755 10.8853 20.6755 12.1147 20.4225 13.3043L21.8497 14.4792C22.0143 14.614 22.1255 14.8031 22.1634 15.0125C22.2013 15.2219 22.1635 15.4379 22.0566 15.6219L20.5916 18.1593C20.4857 18.3439 20.3175 18.4847 20.1172 18.5566C19.9169 18.6285 19.6975 18.6266 19.4984 18.5514L17.7661 17.9024C16.8637 18.7178 15.7992 19.333 14.6422 19.7079L14.3385 21.5305C14.3041 21.7405 14.196 21.9314 14.0336 22.069C13.8712 22.2066 13.6651 22.2818 13.4523 22.2812H10.5224C10.3096 22.2818 10.1035 22.2066 9.9411 22.069C9.7787 21.9315 9.67061 21.7405 9.63619 21.5305L9.33239 19.7079C8.17547 19.333 7.1109 18.7177 6.20852 17.9024L4.47615 18.5515C4.27705 18.6267 4.0577 18.6285 3.8574 18.5566C3.6571 18.4847 3.48893 18.3439 3.38302 18.1593L1.91817 15.6218C1.81129 15.4378 1.77339 15.2218 1.81125 15.0125C1.84911 14.8031 1.96027 14.6141 2.12481 14.4792ZM4.39947 17.0451L6.56062 16.2354L6.88787 16.5649C7.78826 17.4724 8.91447 18.1233 10.1503 18.4504L10.5995 18.5688L10.9789 20.8438H12.9954L13.3747 18.5688L13.8239 18.4504C15.0597 18.1233 16.186 17.4724 17.0863 16.5649L17.4136 16.2354L19.5751 17.0451L20.5832 15.2987L18.803 13.8332L18.9243 13.3851C19.2578 12.1505 19.2578 10.8495 18.9243 9.61486L18.803 9.16689L20.5832 7.70136L19.5749 5.95489L17.4137 6.76456L17.0865 6.43511C16.1861 5.52758 15.0599 4.87669 13.824 4.5496L13.3748 4.43119L12.9956 2.15625H10.9789L10.5997 4.43119L10.1505 4.5496C8.91461 4.87669 7.7884 5.52758 6.88801 6.43511L6.56075 6.76456L4.3996 5.95489L3.39124 7.70132L5.17145 9.16689L5.05016 9.61486C4.71661 10.8495 4.71661 12.1505 5.05016 13.3851L5.17145 13.8332L3.39124 15.2986L4.39947 17.0451Z" fill="#777777"/>
</svg>
