<svg width="22" height="22" viewBox="0 0 22 22" fill="none" xmlns="http://www.w3.org/2000/svg">
<path d="M9.32255 17.4167C9.4595 17.4171 9.59481 17.3869 9.71854 17.3282C9.84227 17.2695 9.95128 17.1839 10.0376 17.0775L14.4651 11.5775C14.5999 11.4135 14.6736 11.2077 14.6736 10.9954C14.6736 10.7831 14.5999 10.5774 14.4651 10.4133L9.88172 4.91333C9.72613 4.72613 9.50254 4.60841 9.26015 4.58606C9.01776 4.56371 8.77642 4.63857 8.58922 4.79417C8.40202 4.94976 8.2843 5.17334 8.26195 5.41574C8.2396 5.65813 8.31446 5.89947 8.47005 6.08667L12.5676 11L8.60755 15.9133C8.49546 16.0479 8.42426 16.2117 8.40237 16.3855C8.38048 16.5592 8.40882 16.7356 8.48404 16.8938C8.55925 17.0519 8.6782 17.1852 8.8268 17.2779C8.9754 17.3706 9.14744 17.4187 9.32255 17.4167Z" fill="#777777"/>
</svg>
