<svg width="56" height="56" viewBox="0 0 56 56" fill="none" xmlns="http://www.w3.org/2000/svg">
<path d="M18.4333 37.3351C18.2188 37.3359 18.0068 37.2885 17.813 37.1966C17.6192 37.1046 17.4484 36.9704 17.3133 36.8039L10.3779 28.1885C10.1667 27.9315 10.0513 27.6093 10.0513 27.2767C10.0513 26.9441 10.1667 26.6218 10.3779 26.3649L17.5574 17.7495C17.8011 17.4563 18.1514 17.2719 18.5311 17.2368C18.9107 17.2018 19.2888 17.3191 19.582 17.5628C19.8753 17.8066 20.0597 18.1568 20.0947 18.5365C20.1297 18.9162 20.0124 19.2942 19.7687 19.5874L13.3502 27.2839L19.5533 34.9803C19.7289 35.191 19.8404 35.4477 19.8747 35.7199C19.909 35.992 19.8646 36.2683 19.7468 36.5161C19.629 36.7638 19.4426 36.9726 19.2099 37.1177C18.9771 37.2629 18.7076 37.3383 18.4333 37.3351Z" fill="black"/>
</svg>
