<svg width="32" height="33" viewBox="0 0 32 33" fill="none" xmlns="http://www.w3.org/2000/svg">
<g clip-path="url(#clip0_28_466)">
<path d="M10.8437 19.0929L4.47411 13.2981C4.03128 12.8951 4.27871 12.1552 4.84463 12.0737L4.93697 12.0659L23.4046 11.7598C23.5237 11.7578 23.6407 11.7873 23.7443 11.8456C23.8479 11.9039 23.9345 11.989 23.9956 12.0924C24.0567 12.1958 24.0903 12.3142 24.093 12.4358C24.0958 12.5574 24.0676 12.6782 24.0112 12.7863L23.9554 12.8766L12.8756 28.1627C12.5165 28.6573 11.7762 28.4859 11.6534 27.9182L11.6391 27.8262L10.8437 19.0929L4.47411 13.2981L10.8437 19.0929ZM6.72142 13.4442L11.6176 17.8979L17.0568 15.0277C17.2056 14.9492 17.3762 14.928 17.5372 14.968C17.6982 15.0079 17.8387 15.1064 17.9326 15.2452L17.9802 15.327C18.0546 15.478 18.0726 15.6523 18.0307 15.8177C17.9888 15.983 17.89 16.1283 17.7525 16.2264L17.6725 16.276L12.2316 19.1471L12.8443 25.8613L22.029 13.1905L6.7206 13.4446L6.72142 13.4442Z" fill="#0FA958"/>
</g>
<defs>
<clipPath id="clip0_28_466">
<rect width="23.7551" height="24.2314" fill="white" transform="matrix(0.889299 -0.469281 0.444757 0.901814 0 11.1478)"/>
</clipPath>
</defs>
</svg>
