<svg width="64" height="9" viewBox="0 0 64 9" fill="none" xmlns="http://www.w3.org/2000/svg">
<g filter="url(#filter0_b_76_386)">
<path d="M7.31633 2.33153C8.23043 2.33153 8.63197 3.48441 7.91566 4.05228L6.98612 4.78918C6.64535 5.05933 6.50278 5.50935 6.62581 5.92644L6.94718 7.01591C7.21451 7.92218 6.15462 8.6327 5.41785 8.04114L4.84894 7.58435C4.45895 7.27124 3.90375 7.27123 3.51377 7.58435L2.93334 8.05039C2.19757 8.64114 1.1387 7.9333 1.4033 7.02758L1.7203 5.94246C1.84129 5.52833 1.70079 5.0821 1.36437 4.81199L0.413525 4.04855C-0.296915 3.47813 0.106433 2.33153 1.01753 2.33153H1.99013C2.46284 2.33153 2.87912 2.02031 3.01287 1.56691L3.25602 0.742586C3.52811 -0.179807 4.83459 -0.179806 5.10668 0.742587L5.34984 1.56691C5.48358 2.02031 5.89986 2.33153 6.37257 2.33153H7.31633Z" fill="#FFCE31" stroke="#777777" stroke-width="0.1"/>
<path d="M21.2329 2.3316C22.147 2.3316 22.5486 3.48448 21.8322 4.05235L20.9027 4.78925C20.5619 5.0594 20.4194 5.50942 20.5424 5.92651L20.8638 7.01599C21.1311 7.92225 20.0712 8.63277 19.3344 8.04121L18.7655 7.58443C18.3755 7.27131 17.8203 7.27131 17.4304 7.58443L16.8499 8.05046C16.1142 8.64121 15.0553 7.93337 15.3199 7.02766L15.6369 5.94253C15.7579 5.5284 15.6174 5.08217 15.281 4.81206L14.3301 4.04862C13.6197 3.4782 14.023 2.3316 14.9341 2.3316H15.9067C16.3794 2.3316 16.7957 2.02038 16.9295 1.56698L17.1726 0.742654C17.4447 -0.179739 18.7512 -0.179739 19.0233 0.742654L19.2664 1.56698C19.4002 2.02037 19.8164 2.3316 20.2892 2.3316H21.2329Z" fill="#FFCE31" stroke="#777777" stroke-width="0.1"/>
<path d="M35.1494 2.3316C36.0635 2.3316 36.465 3.48448 35.7487 4.05235L34.8192 4.78925C34.4784 5.0594 34.3358 5.50942 34.4589 5.92651L34.7802 7.01599C35.0476 7.92225 33.9877 8.63277 33.2509 8.04121L32.682 7.58443C32.292 7.27131 31.7368 7.27131 31.3468 7.58443L30.7664 8.05046C30.0306 8.64121 28.9718 7.93337 29.2364 7.02766L29.5534 5.94253C29.6744 5.5284 29.5339 5.08217 29.1974 4.81206L28.2466 4.04862C27.5361 3.4782 27.9395 2.3316 28.8506 2.3316H29.8232C30.2959 2.3316 30.7122 2.02038 30.8459 1.56698L31.0891 0.742653C31.3612 -0.17974 32.6677 -0.17974 32.9397 0.742653L33.1829 1.56698C33.3166 2.02037 33.7329 2.3316 34.2056 2.3316H35.1494Z" fill="#FFCE31" stroke="#777777" stroke-width="0.1"/>
<path d="M49.066 2.3316C49.9801 2.3316 50.3816 3.48448 49.6653 4.05235L48.7358 4.78925C48.395 5.0594 48.2524 5.50942 48.3755 5.92651L48.6968 7.01599C48.9642 7.92225 47.9043 8.63277 47.1675 8.04121L46.5986 7.58443C46.2086 7.27131 45.6534 7.27131 45.2634 7.58443L44.683 8.05046C43.9472 8.64121 42.8884 7.93337 43.153 7.02766L43.47 5.94253C43.5909 5.5284 43.4505 5.08217 43.114 4.81206L42.1632 4.04862C41.4527 3.4782 41.8561 2.3316 42.7672 2.3316H43.7398C44.2125 2.3316 44.6288 2.02038 44.7625 1.56698L45.0057 0.742653C45.2778 -0.17974 46.5843 -0.179741 46.8563 0.742653L47.0995 1.56698C47.2332 2.02037 47.6495 2.3316 48.1222 2.3316H49.066Z" fill="white" stroke="#777777" stroke-width="0.1"/>
<path d="M62.9825 2.3316C63.8966 2.3316 64.2981 3.48448 63.5818 4.05235L62.6523 4.78925C62.3115 5.0594 62.1689 5.50942 62.292 5.92651L62.6133 7.01599C62.8806 7.92225 61.8208 8.63277 61.084 8.04121L60.5151 7.58443C60.1251 7.27131 59.5699 7.27131 59.1799 7.58443L58.5995 8.05046C57.8637 8.64121 56.8048 7.93337 57.0694 7.02766L57.3864 5.94253C57.5074 5.5284 57.3669 5.08217 57.0305 4.81206L56.0797 4.04861C55.3692 3.4782 55.7726 2.3316 56.6837 2.3316H57.6563C58.129 2.3316 58.5453 2.02038 58.679 1.56698L58.9222 0.742654C59.1943 -0.17974 60.5007 -0.17974 60.7728 0.742654L61.016 1.56698C61.1497 2.02037 61.566 2.3316 62.0387 2.3316H62.9825Z" fill="white" stroke="#777777" stroke-width="0.1"/>
</g>
<defs>
<filter id="filter0_b_76_386" x="-10.1552" y="-10.1552" width="84.3104" height="28.6287" filterUnits="userSpaceOnUse" color-interpolation-filters="sRGB">
<feFlood flood-opacity="0" result="BackgroundImageFix"/>
<feGaussianBlur in="BackgroundImage" stdDeviation="5"/>
<feComposite in2="SourceAlpha" operator="in" result="effect1_backgroundBlur_76_386"/>
<feBlend mode="normal" in="SourceGraphic" in2="effect1_backgroundBlur_76_386" result="shape"/>
</filter>
</defs>
</svg>
