<svg width="21" height="23" viewBox="0 0 21 23" fill="none" xmlns="http://www.w3.org/2000/svg">
<path d="M19.9635 11.4463V2.7713C19.9635 2.31116 19.7973 1.86985 19.5015 1.54448C19.2057 1.21911 18.8045 1.03631 18.3862 1.03631H2.61358C2.19526 1.03631 1.79408 1.21911 1.49828 1.54448C1.20249 1.86985 1.03631 2.31116 1.03631 2.7713V20.1212C1.03631 20.5814 1.20249 21.0227 1.49828 21.348C1.79408 21.6734 2.19526 21.8562 2.61358 21.8562H10.4999" stroke="#3F3D56" stroke-opacity="0.75" stroke-width="2" stroke-linecap="round" stroke-linejoin="round"/>
<path d="M14.7058 19.5429C16.448 19.5429 17.8603 17.9893 17.8603 16.0729C17.8603 14.1565 16.448 12.6029 14.7058 12.6029C12.9636 12.6029 11.5512 14.1565 11.5512 16.0729C11.5512 17.9893 12.9636 19.5429 14.7058 19.5429Z" stroke="#3F3D56" stroke-opacity="0.75" stroke-width="2"/>
<path d="M5.24228 11.4462H9.44832M17.3347 18.3862L19.9634 20.6995L17.3347 18.3862ZM5.24228 6.81959H15.7574H5.24228Z" stroke="#3F3D56" stroke-opacity="0.75" stroke-width="2" stroke-linecap="round" stroke-linejoin="round"/>
</svg>
