<svg width="14" height="14" viewBox="0 0 14 14" fill="none" xmlns="http://www.w3.org/2000/svg">
<path d="M6.99416 1.16669C3.77416 1.16669 1.16666 3.78002 1.16666 7.00002C1.16666 10.22 3.77416 12.8334 6.99416 12.8334C10.22 12.8334 12.8333 10.22 12.8333 7.00002C12.8333 3.78002 10.22 1.16669 6.99416 1.16669ZM6.99999 11.6667C4.42166 11.6667 2.33332 9.57835 2.33332 7.00002C2.33332 4.42169 4.42166 2.33335 6.99999 2.33335C9.57832 2.33335 11.6667 4.42169 11.6667 7.00002C11.6667 9.57835 9.57832 11.6667 6.99999 11.6667Z" fill="#0FA958"/>
<path d="M7.29166 4.08331H6.41666V7.58331L9.47916 9.42081L9.91666 8.70331L7.29166 7.14581V4.08331Z" fill="#0FA958"/>
</svg>
