<svg width="25" height="24" viewBox="0 0 25 24" fill="none" xmlns="http://www.w3.org/2000/svg">
<path d="M6.05586 2H15.1397C15.6751 2 16.1885 2.21071 16.5671 2.58579C16.9457 2.96086 17.1583 3.46957 17.1583 4V5C17.1583 5.26522 17.052 5.51957 16.8627 5.70711C16.6734 5.89464 16.4167 6 16.149 6C15.8813 6 15.6246 5.89464 15.4353 5.70711C15.2461 5.51957 15.1397 5.26522 15.1397 5V4H6.05586V20H15.1397V19C15.1397 18.7348 15.2461 18.4804 15.4353 18.2929C15.6246 18.1054 15.8813 18 16.149 18C16.4167 18 16.6734 18.1054 16.8627 18.2929C17.052 18.4804 17.1583 18.7348 17.1583 19V20C17.1583 20.5304 16.9457 21.0391 16.5671 21.4142C16.1885 21.7893 15.6751 22 15.1397 22H6.05586C5.52049 22 5.00704 21.7893 4.62848 21.4142C4.24991 21.0391 4.03723 20.5304 4.03723 20V4C4.03723 3.46957 4.24991 2.96086 4.62848 2.58579C5.00704 2.21071 5.52049 2 6.05586 2Z" fill="#0FA958"/>
<path d="M16.9515 16.295C17.3451 16.685 17.981 16.685 18.3746 16.295L21.9961 12.707C22.1853 12.5195 22.2916 12.2652 22.2916 12C22.2916 11.7348 22.1853 11.4805 21.9961 11.293L18.3746 7.705C18.1828 7.5332 17.9316 7.441 17.6731 7.44746C17.4145 7.45393 17.1684 7.55857 16.9855 7.73974C16.8027 7.92092 16.6971 8.16479 16.6905 8.42093C16.684 8.67708 16.7771 8.92591 16.9505 9.116L18.844 11H10.0932C9.82549 11 9.56877 11.1054 9.37948 11.2929C9.1902 11.4804 9.08386 11.7348 9.08386 12C9.08386 12.2652 9.1902 12.5196 9.37948 12.7071C9.56877 12.8946 9.82549 13 10.0932 13H18.844L16.9505 14.884C16.7621 15.0714 16.6564 15.3252 16.6566 15.5897C16.6568 15.8542 16.7628 16.1079 16.9515 16.295Z" fill="#0FA958"/>
</svg>
