<svg width="26" height="26" viewBox="0 0 26 26" fill="none" xmlns="http://www.w3.org/2000/svg">
<path d="M12.9458 19.5C13.325 19.5 13.6456 19.3689 13.9078 19.1067C14.1692 18.8453 14.3 18.525 14.3 18.1458C14.3 17.7667 14.1692 17.4464 13.9078 17.1849C13.6456 16.9227 13.325 16.7917 12.9458 16.7917C12.5666 16.7917 12.246 16.9227 11.9838 17.1849C11.7223 17.4464 11.5916 17.7667 11.5916 18.1458C11.5916 18.525 11.7223 18.8453 11.9838 19.1067C12.246 19.3689 12.5666 19.5 12.9458 19.5ZM13.1083 8.34166C13.6138 8.34166 14.0201 8.48141 14.327 8.76091C14.634 9.04114 14.7875 9.40694 14.7875 9.85833C14.7875 10.1653 14.6838 10.4766 14.4765 10.7922C14.2685 11.1085 13.975 11.4382 13.5958 11.7812C13.0541 12.2507 12.6569 12.7021 12.4041 13.1354C12.1513 13.5687 12.025 14.0021 12.025 14.4354C12.025 14.6882 12.1199 14.9002 12.3099 15.0713C12.4991 15.2432 12.7201 15.3292 12.9729 15.3292C13.2257 15.3292 13.4513 15.2389 13.65 15.0583C13.8486 14.8778 13.975 14.6521 14.0291 14.3812C14.0833 14.0743 14.2053 13.7901 14.3953 13.5287C14.5845 13.2665 14.8958 12.9278 15.3291 12.5125C15.8888 11.9889 16.2817 11.5104 16.5078 11.0771C16.7331 10.6437 16.8458 10.1653 16.8458 9.64166C16.8458 8.72083 16.4984 7.96683 15.8036 7.37966C15.1081 6.79322 14.2097 6.5 13.1083 6.5C12.35 6.5 11.6776 6.64444 11.0911 6.93333C10.504 7.22222 10.0479 7.66458 9.72288 8.26041C9.59649 8.49514 9.55135 8.72516 9.58746 8.9505C9.62357 9.17655 9.74996 9.3618 9.96663 9.50625C10.2013 9.65069 10.4588 9.69583 10.739 9.64166C11.0185 9.5875 11.2486 9.43403 11.4291 9.18125C11.6277 8.91041 11.8672 8.70278 12.1474 8.55833C12.4269 8.41389 12.7472 8.34166 13.1083 8.34166ZM13 23.8333C11.5194 23.8333 10.1201 23.5488 8.80204 22.9797C7.48399 22.4113 6.33313 21.6396 5.34946 20.6646C4.36507 19.6896 3.58868 18.5431 3.02029 17.225C2.45118 15.9069 2.16663 14.4986 2.16663 13C2.16663 11.5014 2.45118 10.0931 3.02029 8.775C3.58868 7.45694 4.36507 6.31041 5.34946 5.33541C6.33313 4.36041 7.48399 3.58836 8.80204 3.01925C10.1201 2.45086 11.5194 2.16666 13 2.16666C14.5166 2.16666 15.934 2.45086 17.252 3.01925C18.5701 3.58836 19.7166 4.36041 20.6916 5.33541C21.6666 6.31041 22.434 7.45694 22.9937 8.775C23.5534 10.0931 23.8333 11.5014 23.8333 13C23.8333 14.4986 23.5534 15.9069 22.9937 17.225C22.434 18.5431 21.6666 19.6896 20.6916 20.6646C19.7166 21.6396 18.5701 22.4113 17.252 22.9797C15.934 23.5488 14.5166 23.8333 13 23.8333ZM13 21.6667C15.4194 21.6667 17.4687 20.8227 19.1479 19.1349C20.827 17.4464 21.6666 15.4014 21.6666 13C21.6666 10.5986 20.827 8.55364 19.1479 6.86508C17.4687 5.17725 15.4194 4.33333 13 4.33333C10.6347 4.33333 8.59874 5.17725 6.89213 6.86508C5.18624 8.55364 4.33329 10.5986 4.33329 13C4.33329 15.4014 5.18624 17.4464 6.89213 19.1349C8.59874 20.8227 10.6347 21.6667 13 21.6667Z" fill="#0FA958"/>
</svg>
