<svg width="12" height="11" viewBox="0 0 12 11" fill="none" xmlns="http://www.w3.org/2000/svg">
<path d="M4.96836 0.549139C5.22288 -0.183077 6.2584 -0.183077 6.51292 0.549139L7.356 2.97458C7.46828 3.29759 7.76973 3.5166 8.11163 3.52357L10.6789 3.57589C11.4539 3.59168 11.7739 4.57653 11.1562 5.04486L9.10998 6.59618C8.83747 6.80278 8.72233 7.15715 8.82135 7.48446L9.56493 9.94224C9.7894 10.6842 8.95164 11.2929 8.31535 10.8501L6.20764 9.38344C5.92694 9.18811 5.55434 9.18811 5.27364 9.38344L3.16593 10.8501C2.52964 11.2929 1.69188 10.6842 1.91636 9.94224L2.65993 7.48446C2.75895 7.15715 2.64381 6.80278 2.3713 6.59618L0.325099 5.04485C-0.292629 4.57653 0.0273663 3.59168 0.802395 3.57589L3.36965 3.52357C3.71155 3.5166 4.013 3.29759 4.12528 2.97458L4.96836 0.549139Z" fill="white" fill-opacity="0.96"/>
</svg>
