<svg width="21" height="22" viewBox="0 0 21 22" fill="none" xmlns="http://www.w3.org/2000/svg">
<path d="M8.81125 0.615474C9.28422 0.217942 9.88221 0 10.5 0C11.1178 0 11.7158 0.217942 12.1888 0.615474L20.0638 7.23895C20.3569 7.48533 20.5926 7.79287 20.7543 8.13999C20.916 8.48712 20.9999 8.86543 21 9.2484V20.2496C21 20.7138 20.8156 21.1591 20.4874 21.4873C20.1592 21.8156 19.7141 22 19.25 22H14.4375C13.9734 22 13.5283 21.8156 13.2001 21.4873C12.8719 21.1591 12.6875 20.7138 12.6875 20.2496V14.1232H8.3125V20.2496C8.3125 20.7138 8.12813 21.1591 7.79994 21.4873C7.47175 21.8156 7.02663 22 6.5625 22H1.75C1.28587 22 0.840752 21.8156 0.512563 21.4873C0.184374 21.1591 0 20.7138 0 20.2496V9.24753C9.68273e-05 8.86456 0.0839526 8.48624 0.245687 8.13912C0.407421 7.79199 0.643119 7.48446 0.93625 7.23808L8.81125 0.614599V0.615474ZM11.0635 1.95452C10.9058 1.82171 10.7062 1.74887 10.5 1.74887C10.2938 1.74887 10.0942 1.82171 9.9365 1.95452L2.0615 8.57975C1.96416 8.66171 1.88586 8.76392 1.83206 8.87925C1.77826 8.99458 1.75026 9.12026 1.75 9.24753V20.2487H6.5625V14.1224C6.5625 13.6581 6.74687 13.2129 7.07506 12.8847C7.40325 12.5564 7.84837 12.372 8.3125 12.372H12.6875C13.1516 12.372 13.5967 12.5564 13.9249 12.8847C14.2531 13.2129 14.4375 13.6581 14.4375 14.1224V20.2487H19.25V9.24753C19.25 9.11997 19.2221 8.99395 19.1683 8.87829C19.1145 8.76264 19.0361 8.66015 18.9385 8.578L11.0635 1.95452Z" fill="#777777"/>
</svg>
