<svg width="21" height="15" viewBox="0 0 21 15" fill="none" xmlns="http://www.w3.org/2000/svg">
<path fill-rule="evenodd" clip-rule="evenodd" d="M10.3338 3.57389C12.5585 3.57399 14.6982 4.41168 16.3105 5.91383C16.4319 6.0298 16.626 6.02834 16.7456 5.91055L17.9062 4.76272C17.9668 4.70298 18.0005 4.62205 18 4.53785C17.9995 4.45366 17.9648 4.37312 17.9035 4.31408C13.6716 0.339744 6.99527 0.339744 2.76334 4.31408C2.70204 4.37308 2.66726 4.45359 2.66669 4.53779C2.66613 4.62199 2.69983 4.70293 2.76033 4.76272L3.92128 5.91055C4.04078 6.02852 4.235 6.02998 4.35634 5.91383C5.96891 4.41158 8.10882 3.57389 10.3338 3.57389ZM10.3322 7.29945C11.5559 7.29937 12.736 7.75597 13.643 8.58053C13.7657 8.69756 13.959 8.69502 14.0786 8.57482L15.2392 7.39766C15.3003 7.33591 15.3342 7.25215 15.3333 7.16511C15.3325 7.07807 15.2969 6.99501 15.2345 6.93453C12.4722 4.35515 8.19447 4.35515 5.43218 6.93453C5.36979 6.99501 5.33419 7.07811 5.33337 7.16518C5.33255 7.25224 5.36658 7.336 5.42783 7.39766L6.58808 8.57482C6.70767 8.69502 6.90094 8.69756 7.02363 8.58053C7.93012 7.75652 9.10925 7.29995 10.3322 7.29945ZM12.6666 10.023C12.6684 10.1085 12.6341 10.1909 12.5718 10.2507L10.557 12.2419C10.498 12.3004 10.4175 12.3333 10.3334 12.3333C10.2494 12.3333 10.1689 12.3004 10.1098 12.2419L8.09474 10.2507C8.03249 10.1908 7.99825 10.1084 8.00009 10.023C8.00194 9.93751 8.03971 9.85659 8.10449 9.79931C9.39119 8.73356 11.2757 8.73356 12.5624 9.79931C12.6271 9.85664 12.6648 9.93758 12.6666 10.023Z" fill="black"/>
</svg>
